<?xml version="1.0" encoding="UTF-8" standalone="no"?><svg xmlns="http://www.w3.org/2000/svg" xmlns:xlink="http://www.w3.org/1999/xlink" contentScriptType="application/ecmascript" contentStyleType="text/css" height="407px" preserveAspectRatio="none" style="width:532px;height:407px;" version="1.1" viewBox="0 0 532 407" width="532px" zoomAndPan="magnify"><defs><filter height="300%" id="fh8vhpicvpjhr" width="300%" x="-1" y="-1"><feGaussianBlur result="blurOut" stdDeviation="2.0"/><feColorMatrix in="blurOut" result="blurOut2" type="matrix" values="0 0 0 0 0 0 0 0 0 0 0 0 0 0 0 0 0 0 .4 0"/><feOffset dx="4.0" dy="4.0" in="blurOut2" result="blurOut3"/><feBlend in="SourceGraphic" in2="blurOut3" mode="normal"/></filter></defs><g><line style="stroke: #A80036; stroke-width: 1.0; stroke-dasharray: 5.0,5.0;" x1="37" x2="37" y1="86.2969" y2="320.2266"/><line style="stroke: #A80036; stroke-width: 1.0; stroke-dasharray: 5.0,5.0;" x1="190" x2="190" y1="86.2969" y2="320.2266"/><line style="stroke: #A80036; stroke-width: 1.0; stroke-dasharray: 5.0,5.0;" x1="321.5" x2="321.5" y1="86.2969" y2="320.2266"/><line style="stroke: #A80036; stroke-width: 1.0; stroke-dasharray: 5.0,5.0;" x1="469.5" x2="469.5" y1="86.2969" y2="320.2266"/><text fill="#000000" font-family="sans-serif" font-size="14" lengthAdjust="spacingAndGlyphs" textLength="52" x="8" y="82.9951">Cashier</text><ellipse cx="37" cy="13" fill="#FEFECE" filter="url(#fh8vhpicvpjhr)" rx="8" ry="8" style="stroke: #A80036; stroke-width: 2.0;"/><path d="M37,21 L37,48 M24,29 L50,29 M37,48 L24,63 M37,48 L50,63 " fill="none" filter="url(#fh8vhpicvpjhr)" style="stroke: #A80036; stroke-width: 2.0;"/><text fill="#000000" font-family="sans-serif" font-size="14" lengthAdjust="spacingAndGlyphs" textLength="52" x="8" y="332.2217">Cashier</text><ellipse cx="37" cy="345.5234" fill="#FEFECE" filter="url(#fh8vhpicvpjhr)" rx="8" ry="8" style="stroke: #A80036; stroke-width: 2.0;"/><path d="M37,353.5234 L37,380.5234 M24,361.5234 L50,361.5234 M37,380.5234 L24,395.5234 M37,380.5234 L50,395.5234 " fill="none" filter="url(#fh8vhpicvpjhr)" style="stroke: #A80036; stroke-width: 2.0;"/><rect fill="#FEFECE" filter="url(#fh8vhpicvpjhr)" height="30.2969" style="stroke: #A80036; stroke-width: 1.5;" width="114" x="131" y="51"/><text fill="#000000" font-family="sans-serif" font-size="14" lengthAdjust="spacingAndGlyphs" textLength="100" x="138" y="70.9951">Client Browser</text><rect fill="#FEFECE" filter="url(#fh8vhpicvpjhr)" height="30.2969" style="stroke: #A80036; stroke-width: 1.5;" width="114" x="131" y="319.2266"/><text fill="#000000" font-family="sans-serif" font-size="14" lengthAdjust="spacingAndGlyphs" textLength="100" x="138" y="339.2217">Client Browser</text><rect fill="#FEFECE" filter="url(#fh8vhpicvpjhr)" height="30.2969" style="stroke: #A80036; stroke-width: 1.5;" width="35" x="302.5" y="51"/><text fill="#000000" font-family="sans-serif" font-size="14" lengthAdjust="spacingAndGlyphs" textLength="21" x="309.5" y="70.9951">IoT</text><rect fill="#FEFECE" filter="url(#fh8vhpicvpjhr)" height="30.2969" style="stroke: #A80036; stroke-width: 1.5;" width="35" x="302.5" y="319.2266"/><text fill="#000000" font-family="sans-serif" font-size="14" lengthAdjust="spacingAndGlyphs" textLength="21" x="309.5" y="339.2217">IoT</text><rect fill="#FEFECE" filter="url(#fh8vhpicvpjhr)" height="30.2969" style="stroke: #A80036; stroke-width: 1.5;" width="107" x="414.5" y="51"/><text fill="#000000" font-family="sans-serif" font-size="14" lengthAdjust="spacingAndGlyphs" textLength="93" x="421.5" y="70.9951">Epson Printer</text><rect fill="#FEFECE" filter="url(#fh8vhpicvpjhr)" height="30.2969" style="stroke: #A80036; stroke-width: 1.5;" width="107" x="414.5" y="319.2266"/><text fill="#000000" font-family="sans-serif" font-size="14" lengthAdjust="spacingAndGlyphs" textLength="93" x="421.5" y="339.2217">Epson Printer</text><polygon fill="#A80036" points="178,113.4297,188,117.4297,178,121.4297,182,117.4297" style="stroke: #A80036; stroke-width: 1.0;"/><line style="stroke: #A80036; stroke-width: 1.0;" x1="37" x2="184" y1="117.4297" y2="117.4297"/><text fill="#000000" font-family="sans-serif" font-size="13" lengthAdjust="spacingAndGlyphs" textLength="77" x="44" y="112.3638">print receipt</text><polygon fill="#A80036" points="310,142.5625,320,146.5625,310,150.5625,314,146.5625" style="stroke: #A80036; stroke-width: 1.0;"/><line style="stroke: #A80036; stroke-width: 1.0;" x1="190" x2="316" y1="146.5625" y2="146.5625"/><text fill="#000000" font-family="sans-serif" font-size="13" lengthAdjust="spacingAndGlyphs" textLength="108" x="197" y="141.4966">picture of receipt</text><path d="M178,159.5625 L178,184.5625 L461,184.5625 L461,169.5625 L451,159.5625 L178,159.5625 " fill="#FBFB77" filter="url(#fh8vhpicvpjhr)" style="stroke: #A80036; stroke-width: 1.0;"/><path d="M451,159.5625 L451,169.5625 L461,169.5625 L451,159.5625 " fill="#FBFB77" style="stroke: #A80036; stroke-width: 1.0;"/><text fill="#000000" font-family="sans-serif" font-size="13" lengthAdjust="spacingAndGlyphs" textLength="262" x="184" y="176.6294">convert picture to Epson ESC/PoS format</text><polygon fill="#A80036" points="458,210.8281,468,214.8281,458,218.8281,462,214.8281" style="stroke: #A80036; stroke-width: 1.0;"/><line style="stroke: #A80036; stroke-width: 1.0;" x1="322" x2="464" y1="214.8281" y2="214.8281"/><text fill="#000000" font-family="sans-serif" font-size="13" lengthAdjust="spacingAndGlyphs" textLength="124" x="329" y="209.7622">ESC/PoS command</text><polygon fill="#A80036" points="333,239.9609,323,243.9609,333,247.9609,329,243.9609" style="stroke: #A80036; stroke-width: 1.0;"/><line style="stroke: #A80036; stroke-width: 1.0;" x1="327" x2="469" y1="243.9609" y2="243.9609"/><text fill="#000000" font-family="sans-serif" font-size="13" lengthAdjust="spacingAndGlyphs" textLength="18" x="339" y="238.895">OK</text><polygon fill="#A80036" points="201,269.0938,191,273.0938,201,277.0938,197,273.0938" style="stroke: #A80036; stroke-width: 1.0;"/><line style="stroke: #A80036; stroke-width: 1.0;" x1="195" x2="321" y1="273.0938" y2="273.0938"/><text fill="#000000" font-family="sans-serif" font-size="13" lengthAdjust="spacingAndGlyphs" textLength="18" x="207" y="268.0278">OK</text><polygon fill="#A80036" points="48,298.2266,38,302.2266,48,306.2266,44,302.2266" style="stroke: #A80036; stroke-width: 1.0;"/><line style="stroke: #A80036; stroke-width: 1.0;" x1="42" x2="189" y1="302.2266" y2="302.2266"/><text fill="#000000" font-family="sans-serif" font-size="13" lengthAdjust="spacingAndGlyphs" textLength="129" x="54" y="297.1606">confirmation pop-up</text><!--MD5=[88b98e7bddd4084d0ca2d8eddddf5df6]
@startuml
actor Cashier
participant "Client Browser" as Client

Cashier -> Client: print receipt
Client -> IoT: picture of receipt
note over IoT: convert picture to Epson ESC/PoS format
IoT -> "Epson Printer": ESC/PoS command
"Epson Printer" -> IoT: OK
IoT -> Client: OK
Client -> Cashier: confirmation pop-up

@enduml

PlantUML version 1.2020.02(Sun Mar 01 10:22:07 UTC 2020)
(GPL source distribution)
Java Runtime: OpenJDK Runtime Environment
JVM: OpenJDK 64-Bit Server VM
Java Version: 17.0.16+8
Operating System: Linux
Default Encoding: UTF-8
Language: en
Country: null
--></g></svg>