<?xml version="1.0" encoding="UTF-8" standalone="no"?><svg xmlns="http://www.w3.org/2000/svg" xmlns:xlink="http://www.w3.org/1999/xlink" contentScriptType="application/ecmascript" contentStyleType="text/css" height="372px" preserveAspectRatio="none" style="width:747px;height:372px;" version="1.1" viewBox="0 0 747 372" width="747px" zoomAndPan="magnify"><defs><filter height="300%" id="f1j3brwgamrqdr" width="300%" x="-1" y="-1"><feGaussianBlur result="blurOut" stdDeviation="2.0"/><feColorMatrix in="blurOut" result="blurOut2" type="matrix" values="0 0 0 0 0 0 0 0 0 0 0 0 0 0 0 0 0 0 .4 0"/><feOffset dx="4.0" dy="4.0" in="blurOut2" result="blurOut3"/><feBlend in="SourceGraphic" in2="blurOut3" mode="normal"/></filter></defs><g><line style="stroke: #A80036; stroke-width: 1.0; stroke-dasharray: 5.0,5.0;" x1="85" x2="85" y1="86.2969" y2="284.9609"/><line style="stroke: #A80036; stroke-width: 1.0; stroke-dasharray: 5.0,5.0;" x1="374" x2="374" y1="86.2969" y2="284.9609"/><text fill="#000000" font-family="sans-serif" font-size="14" lengthAdjust="spacingAndGlyphs" textLength="52" x="56" y="82.9951">Cashier</text><ellipse cx="85" cy="13" fill="#FEFECE" filter="url(#f1j3brwgamrqdr)" rx="8" ry="8" style="stroke: #A80036; stroke-width: 2.0;"/><path d="M85,21 L85,48 M72,29 L98,29 M85,48 L72,63 M85,48 L98,63 " fill="none" filter="url(#f1j3brwgamrqdr)" style="stroke: #A80036; stroke-width: 2.0;"/><text fill="#000000" font-family="sans-serif" font-size="14" lengthAdjust="spacingAndGlyphs" textLength="52" x="56" y="296.9561">Cashier</text><ellipse cx="85" cy="310.2578" fill="#FEFECE" filter="url(#f1j3brwgamrqdr)" rx="8" ry="8" style="stroke: #A80036; stroke-width: 2.0;"/><path d="M85,318.2578 L85,345.2578 M72,326.2578 L98,326.2578 M85,345.2578 L72,360.2578 M85,345.2578 L98,360.2578 " fill="none" filter="url(#f1j3brwgamrqdr)" style="stroke: #A80036; stroke-width: 2.0;"/><rect fill="#FEFECE" filter="url(#f1j3brwgamrqdr)" height="30.2969" style="stroke: #A80036; stroke-width: 1.5;" width="50" x="347" y="51"/><text fill="#000000" font-family="sans-serif" font-size="14" lengthAdjust="spacingAndGlyphs" textLength="36" x="354" y="70.9951">odoo</text><rect fill="#FEFECE" filter="url(#f1j3brwgamrqdr)" height="30.2969" style="stroke: #A80036; stroke-width: 1.5;" width="50" x="347" y="283.9609"/><text fill="#000000" font-family="sans-serif" font-size="14" lengthAdjust="spacingAndGlyphs" textLength="36" x="354" y="303.9561">odoo</text><polygon fill="#A80036" points="362,118.4297,372,122.4297,362,126.4297,366,122.4297" style="stroke: #A80036; stroke-width: 1.0;"/><line style="stroke: #A80036; stroke-width: 1.0;" x1="85" x2="368" y1="122.4297" y2="122.4297"/><text fill="#000000" font-family="sans-serif" font-size="13" lengthAdjust="spacingAndGlyphs" textLength="174" x="92" y="117.3638">validation with order details</text><path d="M379,101.2969 L379,126.2969 L735,126.2969 L735,111.2969 L725,101.2969 L379,101.2969 " fill="#FA8072" filter="url(#f1j3brwgamrqdr)" style="stroke: #A80036; stroke-width: 1.0;"/><path d="M725,101.2969 L725,111.2969 L735,111.2969 L725,101.2969 " fill="#FA8072" style="stroke: #A80036; stroke-width: 1.0;"/><text fill="#000000" font-family="sans-serif" font-size="13" lengthAdjust="spacingAndGlyphs" textLength="335" x="385" y="118.3638">internet disconnection (before Odoo server reached)</text><line style="stroke: #A80036; stroke-width: 2.0;" x1="365" x2="383" y1="113.4297" y2="131.4297"/><line style="stroke: #A80036; stroke-width: 2.0;" x1="365" x2="383" y1="131.4297" y2="113.4297"/><line style="stroke: #A80036; stroke-width: 1.0; stroke-dasharray: 2.0,2.0;" x1="85" x2="127" y1="156.5625" y2="156.5625"/><line style="stroke: #A80036; stroke-width: 1.0; stroke-dasharray: 2.0,2.0;" x1="127" x2="127" y1="156.5625" y2="169.5625"/><line style="stroke: #A80036; stroke-width: 1.0; stroke-dasharray: 2.0,2.0;" x1="86" x2="127" y1="169.5625" y2="169.5625"/><polygon fill="#A80036" points="96,165.5625,86,169.5625,96,173.5625,92,169.5625" style="stroke: #A80036; stroke-width: 1.0;"/><text fill="#000000" font-family="sans-serif" font-size="13" lengthAdjust="spacingAndGlyphs" textLength="275" x="92" y="151.4966">storing order in client browser local storage</text><path d="M8,182.5625 L8,207.5625 L158,207.5625 L158,192.5625 L148,182.5625 L8,182.5625 " fill="#00FF00" filter="url(#f1j3brwgamrqdr)" style="stroke: #A80036; stroke-width: 1.0;"/><path d="M148,182.5625 L148,192.5625 L158,192.5625 L148,182.5625 " fill="#00FF00" style="stroke: #A80036; stroke-width: 1.0;"/><text fill="#000000" font-family="sans-serif" font-size="13" lengthAdjust="spacingAndGlyphs" textLength="129" x="14" y="199.6294">internet reconection</text><polygon fill="#A80036" points="362,233.8281,372,237.8281,362,241.8281,366,237.8281" style="stroke: #A80036; stroke-width: 1.0;"/><line style="stroke: #A80036; stroke-width: 1.0;" x1="85" x2="368" y1="237.8281" y2="237.8281"/><text fill="#000000" font-family="sans-serif" font-size="13" lengthAdjust="spacingAndGlyphs" textLength="219" x="92" y="232.7622">validation with stored order details</text><polygon fill="#A80036" points="96,262.9609,86,266.9609,96,270.9609,92,266.9609" style="stroke: #A80036; stroke-width: 1.0;"/><line style="stroke: #A80036; stroke-width: 1.0;" x1="90" x2="373" y1="266.9609" y2="266.9609"/><text fill="#000000" font-family="sans-serif" font-size="13" lengthAdjust="spacingAndGlyphs" textLength="80" x="102" y="261.895">confirmation</text><!--MD5=[478103519ab4ce80d35c70c23a02dd9d]
@startuml
actor Cashier

Cashier -> odoo !!: validation with order details
note right #salmon: internet disconnection (before Odoo server reached)
Cashier - -> Cashier : storing order in client browser local storage
note over Cashier #lime: internet reconection
Cashier -> odoo: validation with stored order details
odoo -> Cashier: confirmation

@enduml

PlantUML version 1.2020.02(Sun Mar 01 10:22:07 UTC 2020)
(GPL source distribution)
Java Runtime: OpenJDK Runtime Environment
JVM: OpenJDK 64-Bit Server VM
Java Version: 17.0.16+8
Operating System: Linux
Default Encoding: UTF-8
Language: en
Country: null
--></g></svg>