<?xml version="1.0" encoding="UTF-8" standalone="no"?><svg xmlns="http://www.w3.org/2000/svg" xmlns:xlink="http://www.w3.org/1999/xlink" contentScriptType="application/ecmascript" contentStyleType="text/css" height="382px" preserveAspectRatio="none" style="width:993px;height:382px;" version="1.1" viewBox="0 0 993 382" width="993px" zoomAndPan="magnify"><defs><filter height="300%" id="fbxrd4iu3iu9j" width="300%" x="-1" y="-1"><feGaussianBlur result="blurOut" stdDeviation="2.0"/><feColorMatrix in="blurOut" result="blurOut2" type="matrix" values="0 0 0 0 0 0 0 0 0 0 0 0 0 0 0 0 0 0 .4 0"/><feOffset dx="4.0" dy="4.0" in="blurOut2" result="blurOut3"/><feBlend in="SourceGraphic" in2="blurOut3" mode="normal"/></filter></defs><g><rect fill="#FFFFFF" filter="url(#fbxrd4iu3iu9j)" height="217.9297" style="stroke: #A80036; stroke-width: 1.0;" width="10" x="107" y="106.5625"/><line style="stroke: #A80036; stroke-width: 1.0; stroke-dasharray: 5.0,5.0;" x1="112" x2="112" y1="38.2969" y2="342.4922"/><line style="stroke: #A80036; stroke-width: 1.0; stroke-dasharray: 5.0,5.0;" x1="496" x2="496" y1="38.2969" y2="342.4922"/><line style="stroke: #A80036; stroke-width: 1.0; stroke-dasharray: 5.0,5.0;" x1="852.5" x2="852.5" y1="38.2969" y2="342.4922"/><rect fill="#FEFECE" filter="url(#fbxrd4iu3iu9j)" height="30.2969" style="stroke: #A80036; stroke-width: 1.5;" width="114" x="53" y="3"/><text fill="#000000" font-family="sans-serif" font-size="14" lengthAdjust="spacingAndGlyphs" textLength="100" x="60" y="22.9951">Client Browser</text><rect fill="#FEFECE" filter="url(#fbxrd4iu3iu9j)" height="30.2969" style="stroke: #A80036; stroke-width: 1.5;" width="114" x="53" y="341.4922"/><text fill="#000000" font-family="sans-serif" font-size="14" lengthAdjust="spacingAndGlyphs" textLength="100" x="60" y="361.4873">Client Browser</text><rect fill="#FEFECE" filter="url(#fbxrd4iu3iu9j)" height="30.2969" style="stroke: #A80036; stroke-width: 1.5;" width="100" x="444" y="3"/><text fill="#000000" font-family="sans-serif" font-size="14" lengthAdjust="spacingAndGlyphs" textLength="86" x="451" y="22.9951">Odoo Server</text><rect fill="#FEFECE" filter="url(#fbxrd4iu3iu9j)" height="30.2969" style="stroke: #A80036; stroke-width: 1.5;" width="100" x="444" y="341.4922"/><text fill="#000000" font-family="sans-serif" font-size="14" lengthAdjust="spacingAndGlyphs" textLength="86" x="451" y="361.4873">Odoo Server</text><rect fill="#FEFECE" filter="url(#fbxrd4iu3iu9j)" height="30.2969" style="stroke: #A80036; stroke-width: 1.5;" width="35" x="833.5" y="3"/><text fill="#000000" font-family="sans-serif" font-size="14" lengthAdjust="spacingAndGlyphs" textLength="21" x="840.5" y="22.9951">IoT</text><rect fill="#FEFECE" filter="url(#fbxrd4iu3iu9j)" height="30.2969" style="stroke: #A80036; stroke-width: 1.5;" width="35" x="833.5" y="341.4922"/><text fill="#000000" font-family="sans-serif" font-size="14" lengthAdjust="spacingAndGlyphs" textLength="21" x="840.5" y="361.4873">IoT</text><rect fill="#FFFFFF" filter="url(#fbxrd4iu3iu9j)" height="217.9297" style="stroke: #A80036; stroke-width: 1.0;" width="10" x="107" y="106.5625"/><polygon fill="#A80036" points="484,65.4297,494,69.4297,484,73.4297,488,69.4297" style="stroke: #A80036; stroke-width: 1.0;"/><line style="stroke: #A80036; stroke-width: 1.0;" x1="112" x2="490" y1="69.4297" y2="69.4297"/><text fill="#000000" font-family="sans-serif" font-size="13" lengthAdjust="spacingAndGlyphs" textLength="171" x="119" y="64.3638">HTTP request for operation</text><line style="stroke: #A80036; stroke-width: 1.0;" x1="112" x2="159" y1="93.5625" y2="93.5625"/><line style="stroke: #A80036; stroke-width: 1.0;" x1="159" x2="159" y1="93.5625" y2="106.5625"/><line style="stroke: #A80036; stroke-width: 1.0;" x1="118" x2="159" y1="106.5625" y2="106.5625"/><polygon fill="#A80036" points="128,102.5625,118,106.5625,128,110.5625,124,106.5625" style="stroke: #A80036; stroke-width: 1.0;"/><text fill="#000000" font-family="sans-serif" font-size="13" lengthAdjust="spacingAndGlyphs" textLength="370" x="124" y="88.4966">Waiting for operation completion. Timeout after X seconds</text><polygon fill="#A80036" points="841,136.6953,851,140.6953,841,144.6953,845,140.6953" style="stroke: #A80036; stroke-width: 1.0;"/><line style="stroke: #A80036; stroke-width: 1.0;" x1="496" x2="847" y1="140.6953" y2="140.6953"/><text fill="#000000" font-family="sans-serif" font-size="13" lengthAdjust="spacingAndGlyphs" textLength="278" x="503" y="135.6294">websocket request with operation elements</text><polygon fill="#A80036" points="507,165.8281,497,169.8281,507,173.8281,503,169.8281" style="stroke: #A80036; stroke-width: 1.0;"/><line style="stroke: #A80036; stroke-width: 1.0;" x1="501" x2="852" y1="169.8281" y2="169.8281"/><text fill="#000000" font-family="sans-serif" font-size="13" lengthAdjust="spacingAndGlyphs" textLength="333" x="513" y="164.7622">websocket (empty response) reception confirmation</text><line style="stroke: #A80036; stroke-width: 1.0;" x1="853" x2="895" y1="198.9609" y2="198.9609"/><line style="stroke: #A80036; stroke-width: 1.0;" x1="895" x2="895" y1="198.9609" y2="211.9609"/><line style="stroke: #A80036; stroke-width: 1.0;" x1="854" x2="895" y1="211.9609" y2="211.9609"/><polygon fill="#A80036" points="864,207.9609,854,211.9609,864,215.9609,860,211.9609" style="stroke: #A80036; stroke-width: 1.0;"/><text fill="#000000" font-family="sans-serif" font-size="13" lengthAdjust="spacingAndGlyphs" textLength="121" x="860" y="193.895">Handling operation</text><path d="M8,224.9609 L8,264.9609 L213,264.9609 L213,234.9609 L203,224.9609 L8,224.9609 " fill="#FFAAAA" filter="url(#fbxrd4iu3iu9j)" style="stroke: #A80036; stroke-width: 1.0;"/><path d="M203,224.9609 L203,234.9609 L213,234.9609 L203,224.9609 " fill="#FFAAAA" style="stroke: #A80036; stroke-width: 1.0;"/><text fill="#000000" font-family="sans-serif" font-size="13" lengthAdjust="spacingAndGlyphs" textLength="121" x="14" y="242.0278">If timeout reached,</text><text fill="#000000" font-family="sans-serif" font-size="13" lengthAdjust="spacingAndGlyphs" textLength="184" x="14" y="257.1606">will display an error message</text><polygon fill="#A80036" points="507,291.3594,497,295.3594,507,299.3594,503,295.3594" style="stroke: #A80036; stroke-width: 1.0;"/><line style="stroke: #A80036; stroke-width: 1.0;" x1="501" x2="852" y1="295.3594" y2="295.3594"/><text fill="#000000" font-family="sans-serif" font-size="13" lengthAdjust="spacingAndGlyphs" textLength="246" x="513" y="290.2935">HTTP request for operation completion</text><polygon fill="#A80036" points="123,320.4922,113,324.4922,123,328.4922,119,324.4922" style="stroke: #A80036; stroke-width: 1.0;"/><line style="stroke: #A80036; stroke-width: 1.0;" x1="117" x2="495" y1="324.4922" y2="324.4922"/><text fill="#000000" font-family="sans-serif" font-size="13" lengthAdjust="spacingAndGlyphs" textLength="236" x="129" y="319.4263">confirmation of operation completion</text><!--MD5=[ddddc7f735420302a598bea6dc853a0f]
@startuml
 participant "Client Browser" as Client
 participant "Odoo Server" as Server
 participant "IoT" as IoT


Client -> Server: HTTP request for operation
Client -> Client: Waiting for operation completion. Timeout after X seconds
activate Client
Server -> IoT: websocket request with operation elements
IoT -> Server: websocket (empty response) reception confirmation
IoT -> IoT: Handling operation
note over Client #FFAAAA
If timeout reached,
will display an error message
end note
IoT -> Server: HTTP request for operation completion
Server -> Client: confirmation of operation completion
deactivate Client

@enduml

PlantUML version 1.2020.02(Sun Mar 01 10:22:07 UTC 2020)
(GPL source distribution)
Java Runtime: OpenJDK Runtime Environment
JVM: OpenJDK 64-Bit Server VM
Java Version: 17.0.16+8
Operating System: Linux
Default Encoding: UTF-8
Language: en
Country: null
--></g></svg>